<svg xmlns="http://www.w3.org/2000/svg" viewBox="0 0 46.076 46.076">
	<g fill="#FFFFFF">
		<path d="M37.697,12.973c0.007,0.49-0.063,0.982-0.217,1.458c-0.271,0.832-0.606,1.628-1.002,2.383 c3.334,1.766,5.613,5.274,5.613,9.302c0,2.144-0.646,4.141-1.75,5.804l0.332,5.479c3.292-2.659,5.402-6.729,5.402-11.281 C46.075,20.308,42.641,15.286,37.697,12.973z" />
		<path d="M9.597,16.812c-0.396-0.755-0.732-1.551-1.002-2.383c-0.154-0.476-0.224-0.968-0.218-1.458 C3.433,15.286,0,20.308,0,26.115c0,4.554,2.109,8.622,5.401,11.281l0.332-5.478c-1.105-1.664-1.75-3.661-1.75-5.805 C3.983,22.087,6.261,18.579,9.597,16.812z" />
		<path d="M36.555,21.051c-0.022-0.37-0.265-0.689-0.615-0.812c-0.099-0.034-0.201-0.052-0.303-0.052 c-0.255,0-0.504,0.107-0.683,0.305c-2.94,3.258-7.192,5.312-11.917,5.312c-4.725,0-8.977-2.055-11.917-5.312 c-0.178-0.197-0.428-0.305-0.683-0.305c-0.101,0-0.204,0.018-0.303,0.052c-0.35,0.123-0.591,0.443-0.614,0.813L8.373,39.987 c-0.071,1.165,0.343,2.303,1.143,3.151c0.799,0.85,1.915,1.327,3.082,1.327h20.88c1.166,0,2.281-0.479,3.082-1.327 c0.799-0.85,1.213-1.988,1.143-3.154L36.555,21.051z" />
		<path d="M11.766,12.183c-0.266,0.365-0.341,0.846-0.202,1.275c1.57,4.843,6.114,8.359,11.473,8.359 c5.359,0,9.902-3.512,11.473-8.353c0.141-0.431,0.064-0.917-0.201-1.283c-0.267-0.367-0.69-0.598-1.144-0.598H12.91 C12.457,11.583,12.032,11.815,11.766,12.183z" />
		<path d="M31.488,2.747c0-0.627-0.508-1.136-1.135-1.136H15.812c-0.627,0-1.135,0.509-1.135,1.136v5.724 c0,0.627,0.508,1.136,1.135,1.136h14.542c0.627,0,1.135-0.509,1.135-1.136V2.747z" />
		<path d="M10.276,9.605h0.539c0.627,0,1.143-0.477,1.143-1.104V2.776c0-0.627-0.515-1.166-1.143-1.166h-0.539 c-2.204,0-4.005,1.817-4.005,4.021v0.016C6.271,7.852,8.072,9.605,10.276,9.605z" />
		<path d="M35.26,9.605h0.539c2.204,0,4.014-1.755,4.014-3.958V5.631c0-2.203-1.811-4.021-4.014-4.021H35.26 c-0.627,0-1.134,0.539-1.134,1.166v5.726C34.126,9.129,34.633,9.605,35.26,9.605z" />
	</g>
</svg>