<svg version="1.1" id="dices" xmlns="http://www.w3.org/2000/svg" xmlns:xlink="http://www.w3.org/1999/xlink" x="0px" y="0px"
	 width="64px" height="64px" viewBox="0 0 64 64" fill="#aaaaaa" enable-background="new 0 0 64 64" xml:space="preserve">
<path id="d6_1_" d="M35.668,33c0.795,1.018,1.192,2.334,1.192,3.948c0,1.568-0.391,2.873-1.17,3.914
	c-0.78,1.041-1.753,1.561-2.919,1.561c-2.893,0-4.339-2.08-4.339-6.244v-2.284c0.334-0.678,0.841-1.252,1.522-1.72
	c0.68-0.467,1.529-0.701,2.543-0.701C33.815,31.473,34.872,31.982,35.668,33z M58.685,7.635v48.457c0,1.352-1.105,2.455-2.455,2.455
	H7.772c-1.35,0-2.454-1.104-2.454-2.455V7.635c0-1.35,1.104-2.455,2.454-2.455h48.457C57.579,5.181,58.685,6.285,58.685,7.635z
	 M43.289,36.336c0-3.035-0.76-5.488-2.276-7.358c-1.519-1.87-3.558-2.805-6.119-2.805c-2.357,0-4.309,0.759-5.853,2.276
	c0.38-2.181,1.392-3.886,3.038-5.112s3.75-1.839,6.311-1.839h0.306v-5.387h-1.037c-2.954,0-5.645,0.691-8.069,2.073
	c-2.426,1.382-4.293,3.29-5.6,5.722c-1.309,2.433-1.962,5.173-1.962,8.222v2.744c0.027,2.318,0.502,4.363,1.423,6.139
	c0.922,1.774,2.209,3.14,3.862,4.095s3.53,1.434,5.631,1.434c1.937,0,3.701-0.445,5.294-1.333c1.593-0.886,2.832-2.116,3.72-3.689
	C42.845,39.947,43.289,38.219,43.289,36.336z"/>
</svg>
