<svg xmlns="http://www.w3.org/2000/svg" viewBox="0 0 315.344 315.344">
  <g fill="currentColor">
    <path d="m97.255,145.171h-30.43l4.59-13.231c0.52-1.5 0.107-3.165-1.053-4.248-1.16-1.083-2.85-1.38-4.31-0.758l-63.476,27.047c-1.479,0.63-2.439,2.083-2.439,3.691 0,1.608 0.96,3.061 2.439,3.691l63.475,27.047c1.46,0.622 3.15,0.325 4.31-0.758 1.16-1.083 1.573-2.748 1.053-4.248l-4.59-13.232h30.431c1.733-3.893 3.621-7.381 5.288-10.451 0.273-0.503 0.677-1.247 1.104-2.048-0.439-0.825-0.849-1.579-1.105-2.051-1.666-3.071-3.554-6.558-5.287-10.451z"/>
    <path d="m246.442,197.666c-6.104,7.539-52.744,65.149-59.971,74.077-0.509-9.375-2.706-17.987-6.14-25.647-12.374-27.604-32.549-32.378-41.57-39.041-4.412-3.258-7.114-6.996-7.114-12.526 0-4.58 3.075-10.244 6.05-15.722 3.586-6.604 7.294-13.433 7.294-21.136 0-7.702-3.708-14.531-7.294-21.136-2.975-5.477-6.05-11.142-6.05-15.721 0-8.85 6.917-13.107 16.688-18.157 15.234-7.865 25.635-19.221 31.996-33.41 3.434-7.661 5.631-16.272 6.14-25.647 6.104,7.54 53.986,66.684 59.663,73.696 3.52-2.792 7.911-4.364 12.577-4.363 1.158,0 2.306,0.111 3.437,0.306-4.109-5.076-74.626-92.177-79.036-97.626-0.704-2.459-1.507-4.946-2.444-7.468-2.405-6.469-9.599-9.763-16.073-7.36-6.486,2.412-9.761,9.615-7.36,16.073 4.826,12.98 6.295,26.835 1.323,39.762-4.242,11.03-11.727,18.659-21.7,23.828-9.806,5.067-30.21,15.612-30.21,40.366 0,10.56 4.616,19.43 9.079,27.65 1.643,3.024 4.118,7.585 4.261,9.182-0.148,1.656-2.62,6.209-4.261,9.231-4.047,7.452-9.079,16.722-9.079,27.65 0,12.762 5.409,22.916 15.09,30.893 13.464,11.095 28.356,11.296 36.82,33.301 4.97,12.923 3.505,26.777-1.323,39.762-2.396,6.446 0.862,13.657 7.36,16.073 6.486,2.407 13.671-0.902 16.073-7.36 0.937-2.521 1.74-5.009 2.444-7.468 4.329-5.348 75.346-93.068 79.624-98.352-1.319,0.268-2.667,0.41-4.026,0.41-4.531,0.001-8.802-1.48-12.268-4.12z"/>
    <path d="m309.228,157.36l5.182-8.316c0.74-1.187 0.978-2.619 0.661-3.982-0.316-1.363-1.161-2.543-2.348-3.283l-12.268-7.643c-2.473-1.541-5.725-0.784-7.264,1.687l-5.825,9.348h-12.874l.955-1.532c0.74-1.187 0.977-2.619 0.661-3.981-0.316-1.362-1.161-2.543-2.348-3.283l-12.267-7.643c-2.471-1.539-5.723-0.786-7.264,1.687l-9.192,14.753c-9.803,0-77.819,0-87.004,0 1.182,3.846 1.959,8.002 1.959,12.5 0,4.498-0.777,8.654-1.958,12.5 9.28,0 76.325,0 87.392,0l8.805,14.131c1.54,2.471 4.791,3.227 7.264,1.687l12.267-7.644c2.472-1.54 3.227-4.792 1.687-7.264l-.567-.91h12.874l5.437,8.726c1.539,2.47 4.791,3.228 7.264,1.687l12.268-7.644c1.187-0.74 2.032-1.92 2.348-3.283 0.316-1.362 0.079-2.795-0.661-3.982l-5.184-8.316z"/>
  </g>
</svg>