<svg xmlns="http://www.w3.org/2000/svg" viewBox="0 0 1968 1957">
  <g transform="translate(0.000000,1957.000000) scale(0.100000,-0.100000)" fill="currentColor">
    <path d="M9065 19523 c-456 -21 -909 -71 -1315 -144 -2300 -415 -4343 -1606 -5735 -3344 -1245 -1555 -1926 -3511 -1971 -5660 -5 -245 -4 -258 11 -225 9 19 205 490 437 1045 231 556 424 1017 430 1025 7 12 8 11 4 -5 -9 -36 -75 -625 -101 -896 -93 -1000 -109 -1915 -49 -2729 139 -1895 703 -3457 1682 -4659 46 -57 78 -102 71 -99 -8 4 -394 173 -859 377 -465 204 -848 370 -852 368 -8 -2 112 -203 217 -364 1373 -2089 4082 -3306 7735 -3473 135 -7 279 -10 320 -8 l75 3 -165 59 c-805 288 -1686 714 -2402 1161 -695 435 -1295 911 -1863 1480 -381 380 -606 639 -919 1055 -1054 1404 -1707 3103 -1885 4910 -41 410 -46 512 -45 970 0 443 6 574 40 920 127 1293 554 2449 1246 3376 1023 1369 2615 2243 4523 2483 331 42 506 53 927 58 439 6 656 -2 1008 -38 1381 -138 2720 -592 3870 -1313 1034 -648 1914 -1538 2495 -2523 43 -73 80 -131 82 -129 8 7 -110 569 -172 821 -110 450 -259 937 -398 1305 -30 80 -58 154 -62 165 -9 26 23 -10 174 -195 1515 -1861 2160 -4229 1746 -6415 -310 -1636 -1216 -2988 -2495 -3722 -215 -124 -320 -171 -421 -188 -472 -81 -1045 -226 -1509 -381 -588 -197 -958 -376 -1244 -604 -735 -584 -958 -1532 -581 -2470 127 -317 314 -599 560 -845 583 -584 1335 -775 2080 -530 419 138 829 410 1385 919 99 90 895 871 1240 1216 1908 1908 2935 3739 3194 5690 50 376 60 546 61 1000 0 234 -4 456 -9 495 l-8 70 -58 -230 c-256 -1019 -680 -2029 -1293 -3073 -49 -84 -91 -151 -93 -149 -2 2 23 67 56 145 172 411 396 1050 524 1492 380 1315 521 2563 420 3720 -118 1360 -566 2588 -1328 3640 -369 509 -838 1002 -1356 1425 -1092 891 -2521 1577 -4176 2006 -104 27 -194 49 -200 49 -5 0 59 -35 141 -78 405 -210 877 -539 1180 -825 l60 -56 -155 60 c-1134 438 -2413 657 -3715 636 -479 -8 -880 -38 -1300 -98 -873 -124 -1731 -364 -2444 -683 -69 -30 -126 -54 -128 -53 -1 2 46 46 105 98 934 826 2055 1431 3262 1762 91 25 197 53 235 62 185 43 303 68 454 95 91 17 166 32 168 33 12 13 -697 21 -912 10z"/>
    <path d="M9413 14965 c-403 -109 -816 -712 -1128 -1650 -82 -245 -133 -432 -200 -735 -269 -1214 -279 -1982 -38 -2963 26 -103 44 -189 41 -192 -6 -6 -398 -115 -414 -115 -10 0 -76 256 -118 466 -29 143 -69 408 -88 584 -17 166 -18 829 0 1000 46 448 109 808 266 1520 117 532 171 822 197 1048 15 138 7 420 -14 487 -60 187 -201 280 -422 279 -118 0 -184 -18 -274 -72 -401 -243 -639 -1030 -746 -2467 -43 -577 -53 -835 -50 -1285 3 -460 11 -602 56 -925 21 -159 69 -410 93 -488 8 -26 11 -49 6 -52 -26 -16 -395 -145 -404 -142 -20 8 -99 361 -140 627 -91 593 -95 1190 -11 2085 19 201 80 803 101 995 21 187 15 343 -15 421 -56 147 -200 229 -402 229 -102 0 -121 -11 -168 -93 -204 -358 -371 -1657 -371 -2892 0 -652 46 -1146 130 -1400 11 -33 38 -159 60 -280 22 -121 84 -445 139 -720 217 -1084 280 -1501 297 -1955 14 -366 -41 -671 -149 -830 -17 -27 -179 -214 -358 -417 -179 -202 -340 -385 -358 -405 l-33 -38 2560 0 2561 0 248 355 c136 195 254 355 262 355 32 0 232 74 299 111 210 112 315 234 557 642 186 313 374 553 674 860 281 286 492 471 816 715 536 402 1128 737 1654 933 167 63 182 70 215 109 43 52 51 101 27 179 -66 218 -359 470 -681 585 -238 86 -476 97 -677 30 -120 -39 -529 -258 -1083 -579 -524 -304 -822 -447 -1063 -509 -357 -93 -667 -44 -1010 158 -505 297 -812 781 -926 1461 -40 240 -46 330 -45 710 0 456 26 748 114 1305 96 603 122 708 295 1205 194 556 253 749 297 969 32 160 32 393 -1 486 -53 153 -152 247 -310 294 -67 20 -197 20 -268 1z"/>
  </g>
</svg>
