<svg xmlns="http://www.w3.org/2000/svg" viewBox="0 0 91.73 95.57" fill="currentColor">
  <path d="M29.29,45.82c2.77,6.3,1.45,13.11-3.37,17.72-1.08,1.03-1.27,2.13-.51,2.92,.91,.95,2.04,.93,3.16-.16,3.81-3.7,5.88-8.18,5.98-13.53,0-.36,0-.72,.01-1.08,0-.08,.03-.16,.05-.24,1.35,.7,2.63,1.68,4.06,2.02,1.45,.35,3.04,.08,4.76,.08,1.07,4.8,4.19,7.22,9.47,6.72,.43,3.77,2.84,5.93,6.22,7.53-1.72,2.23-3.29,4.48-5.09,6.52-3.05,3.48-6.16,6.92-9.41,10.22-3.98,4.04-8.85,5.3-14.38,4.08-4.33-.95-3.04-1.5-6.46,1.87-1.39,1.38-2.75,2.78-4.15,4.15-1.25,1.22-2.56,1.24-3.78,.02-4.97-4.97-9.94-9.94-14.89-14.93-1.29-1.3-1.27-2.58,0-3.87,1.77-1.79,3.6-3.52,5.3-5.37,.52-.56,.94-1.42,.99-2.17,.43-5.62,.67-11.25,1.15-16.86,.41-4.79,2.72-8.63,6.47-11.58,3.01-2.37,6.05-4.7,9.08-7.04,3.06-2.37,7.05-2.14,9.77,.64,3.16,3.22,6.27,6.49,9.37,9.77,1.68,1.77,1.68,4.3,.06,5.78-1.67,1.53-4.06,1.34-5.75-.47-1.91-2.04-3.79-4.1-5.69-6.16-1.44-1.55-2.03-1.6-3.76-.33-1.28,.95-2.58,1.89-3.85,2.85-1.14,.85-1.38,1.95-.69,2.89,.65,.87,1.77,.95,2.87,.19,.49-.34,.97-.7,1.45-1.05,.48-.35,.97-.7,1.55-1.11Z"/>
  <path d="M83.51,53.54c-6.89-6.54-9.68-13.88-5.07-22.95-10.08-1.58-15.83-7.39-17.36-17.34-8.85,4.03-16.4,2.5-22.83-4.91-1.68,3.66-3.94,6.72-7.66,8.37-3.69,1.64-7.46,1.24-11.32,.3,.2,1.91,.55,3.72,.52,5.52-.03,1.86-.26,3.75-.7,5.55-.43,1.74-2.03,2.55-3.48,2.09-1.6-.51-2.2-2.03-1.73-3.89,.71-2.82,.3-5.64-.32-8.42-.3-1.36-.75-2.69-1.16-4.02-.35-1.12-.29-2.16,.56-3.01,.87-.87,1.92-.95,3.1-.61,2.59,.75,5.18,1.6,7.83,2.06,3.46,.6,6.23-.85,7.97-3.85,1.04-1.81,1.73-3.84,2.43-5.82,.43-1.21,.97-2.22,2.28-2.52,1.38-.31,2.33,.4,3.16,1.45,1.18,1.51,2.39,3,3.68,4.41,4.12,4.46,9.75,5.39,15.11,2.51,.98-.53,1.92-1.14,2.86-1.73,2.15-1.33,4.19-.32,4.5,2.18,.21,1.66,.47,3.32,.81,4.96,1.28,6.28,5.13,10.02,11.36,11.31,1.6,.33,3.22,.57,4.84,.76,2.41,.27,3.45,2.3,2.22,4.43-.83,1.45-1.73,2.88-2.42,4.4-1.8,3.94-1.44,7.83,1.2,11.19,1.8,2.3,4.11,4.2,6.27,6.21,.88,.82,1.78,1.54,1.5,2.89-.27,1.34-1.27,1.87-2.48,2.3-1.91,.67-3.82,1.39-5.61,2.32-3.27,1.69-4.52,4.56-3.94,8.11,.4,2.47,1.07,4.9,1.75,7.31,.37,1.3,.69,2.53-.34,3.59-1.06,1.1-2.34,.94-3.66,.44-2.86-1.08-5.81-1.73-8.87-1.68-1.09,.02-2.21,.25-3.27,.53-1.64,.44-3.01-.17-3.56-1.73-.52-1.45,.16-2.9,1.7-3.46,3.22-1.17,6.51-.9,9.81-.41,.47,.07,.93,.14,1.64,.25-2.2-8.69-.27-15.49,8.66-19.09Z"/>
  <path d="M51.83,56.48c-2.32-.07-3.56-.87-4.24-2.45-.7-1.61-.34-3.08,.84-4.3,2.16-2.24,4.38-4.42,6.57-6.62,.76-.76,1.5-1.55,2.3-2.27,1.63-1.46,4.09-1.44,5.52,0,1.55,1.56,1.6,4.1,.02,5.72-2.87,2.94-5.75,5.87-8.72,8.7-.72,.69-1.83,.98-2.29,1.21Z"/>
  <path d="M56.71,59.09c.23-.45,.53-1.49,1.19-2.2,2.09-2.25,4.29-4.41,6.49-6.55,1.56-1.52,3.85-1.53,5.4-.1,1.51,1.39,1.83,3.91,.44,5.43-2.27,2.47-4.65,4.84-7.1,7.13-1.2,1.11-2.78,1.19-4.27,.47-1.48-.71-2.11-1.99-2.16-4.18Z"/>
  <path d="M43.44,37.86c2.36-2.3,4.63-4.54,6.94-6.73,1.63-1.54,3.95-1.53,5.49-.05,1.51,1.44,1.74,4.02,.3,5.53-2.53,2.65-5.17,5.19-7.76,7.78-.7-1.16-1.3-2.35-2.09-3.4-.79-1.04-1.77-1.94-2.89-3.12Z"/>
  <path d="M35.46,29.61c1.92-1.98,3.67-3.94,5.6-5.72,1.42-1.31,3.8-1.1,5.13,.22,1.35,1.34,1.66,3.86,.38,5.26-1.8,1.96-3.8,3.73-5.56,5.43-1.82-1.7-3.7-3.47-5.54-5.19Z"/>
</svg>